solid EncoderHolderBody
facet normal -1.0 1.0111654351111409e-27 -2.026945418708748e-12
  outer loop
    vertex -4.053890837417489e-12 -44.999999999997456 162.7169027252128
    vertex 0.0 3.3839597790574766e-14 160.71690272521283
    vertex 0.0 -45.00000000000005 160.7169027252128
  endloop
endfacet
facet normal -1.0 1.0111654351111409e-27 -2.026945418708748e-12
  outer loop
    vertex 0.0 3.3839597790574766e-14 160.71690272521283
    vertex -4.053890837417489e-12 -44.999999999997456 162.7169027252128
    vertex -4.053890837417489e-12 2.630679296194547e-12 162.71690272521283
  endloop
endfacet
facet normal -1.2318454999819667e-17 -6.838204266381626e-16 1.0
  outer loop
    vertex 59.99999999999595 -44.999999999997456 162.7169027252128
    vertex -4.053890837417489e-12 2.630679296194547e-12 162.71690272521283
    vertex -4.053890837417489e-12 -44.999999999997456 162.7169027252128
  endloop
endfacet
facet normal -1.2318454999819667e-17 -6.838204266381626e-16 1.0
  outer loop
    vertex -4.053890837417489e-12 2.630679296194547e-12 162.71690272521283
    vertex 59.99999999999595 -44.999999999997456 162.7169027252128
    vertex 31.562991762427224 2.630679296194547e-12 162.71690272521283
  endloop
endfacet
facet normal -1.2318454999819667e-17 -6.838204266381626e-16 1.0
  outer loop
    vertex 31.562991762427224 2.630679296194547e-12 162.71690272521283
    vertex 59.99999999999595 -44.999999999997456 162.7169027252128
    vertex 31.562991762427224 6.220005950789816 162.71690272521283
  endloop
endfacet
facet normal -1.2318454999819667e-17 -6.838204266381626e-16 1.0
  outer loop
    vertex 31.562991762427224 6.220005950789816 162.71690272521283
    vertex 59.99999999999595 -44.999999999997456 162.7169027252128
    vertex 37.40499176242728 2.5968396984039723e-12 162.71690272521283
  endloop
endfacet
facet normal -1.2318454999819667e-17 -6.838204266381626e-16 1.0
  outer loop
    vertex 37.40499176242728 2.5968396984039723e-12 162.71690272521283
    vertex 59.99999999999595 -44.999999999997456 162.7169027252128
    vertex 59.99999999999595 2.630679296194547e-12 162.71690272521283
  endloop
endfacet
facet normal -1.2318454999819667e-17 -6.838204266381626e-16 1.0
  outer loop
    vertex 37.40499176242728 6.220005950789816 162.71690272521283
    vertex 31.562991762427224 6.220005950789816 162.71690272521283
    vertex 37.40499176242728 2.5968396984039723e-12 162.71690272521283
  endloop
endfacet
facet normal -1.0 3.398690925309089e-11 -4.226659763039091e-12
  outer loop
    vertex 9.754228198063728 -45.00000004472874 160.71690272632438
    vertex 9.754228198304121 -38.30000000200337 157.71690272216273
    vertex 9.754228198076408 -45.00000004473876 157.7169027263244
  endloop
endfacet
facet normal -1.0 3.398690925309089e-11 -4.226659763039091e-12
  outer loop
    vertex 9.754228198304121 -38.30000000200337 157.71690272216273
    vertex 9.754228198063728 -45.00000004472874 160.71690272632438
    vertex 9.754228198291441 -38.300000001993354 160.71690272216273
  endloop
endfacet
facet normal 2.8271314671044097e-10 -1.0 3.929531340244876e-09
  outer loop
    vertex 59.99999999999595 -44.999999999997456 162.7169027252128
    vertex 31.362991741602563 -45.000000000410125 160.716902725288
    vertex 60.0 -45.00000000000005 160.7169027252128
  endloop
endfacet
facet normal 2.8271314671044097e-10 -1.0 3.929531340244876e-09
  outer loop
    vertex 31.362991741602563 -45.000000000410125 160.716902725288
    vertex 59.99999999999595 -44.999999999997456 162.7169027252128
    vertex 9.754228198063728 -45.00000004472874 160.71690272632438
  endloop
endfacet
facet normal 2.8271314671044097e-10 -1.0 3.929531340244876e-09
  outer loop
    vertex 9.754228198063728 -45.00000004472874 160.71690272632438
    vertex -4.053890837417489e-12 -44.999999999997456 162.7169027252128
    vertex 0.0 -45.00000000000005 160.7169027252128
  endloop
endfacet
facet normal 2.8271314671044097e-10 -1.0 3.929531340244876e-09
  outer loop
    vertex -4.053890837417489e-12 -44.999999999997456 162.7169027252128
    vertex 9.754228198063728 -45.00000004472874 160.71690272632438
    vertex 59.99999999999595 -44.999999999997456 162.7169027252128
  endloop
endfacet
facet normal 2.8271314671044097e-10 -1.0 3.929531340244876e-09
  outer loop
    vertex 31.362991741602563 -45.000000000410125 160.716902725288
    vertex 9.754228198076408 -45.00000004473876 157.7169027263244
    vertex 31.362991741615243 -45.00000000042015 157.71690272528804
  endloop
endfacet
facet normal 2.8271314671044097e-10 -1.0 3.929531340244876e-09
  outer loop
    vertex 9.754228198076408 -45.00000004473876 157.7169027263244
    vertex 31.362991741602563 -45.000000000410125 160.716902725288
    vertex 9.754228198063728 -45.00000004472874 160.71690272632438
  endloop
endfacet
facet normal 8.896757484955923e-12 -1.6188048290966801e-13 -1.0
  outer loop
    vertex 43.97412665057197 -3.2000000000100397 157.7169027252128
    vertex 3.2000000000126776 -38.30000000006903 157.71690272512618
    vertex 3.2000000000126776 -3.2000000000100397 157.7169027252128
  endloop
endfacet
facet normal 8.896757484955923e-12 -1.6188048290966801e-13 -1.0
  outer loop
    vertex 3.2000000000126776 -38.30000000006903 157.71690272512618
    vertex 43.97412665057197 -3.2000000000100397 157.7169027252128
    vertex 9.754228198304121 -38.30000000200337 157.71690272216273
  endloop
endfacet
facet normal 8.896757484955923e-12 -1.6188048290966801e-13 -1.0
  outer loop
    vertex 9.754228198304121 -38.30000000200337 157.71690272216273
    vertex 43.97412665057197 -3.2000000000100397 157.7169027252128
    vertex 31.362991702441676 -38.2999999926357 157.71690272558936
  endloop
endfacet
facet normal 8.896757484955923e-12 -1.6188048290966801e-13 -1.0
  outer loop
    vertex 31.362991702441676 -38.2999999926357 157.71690272558936
    vertex 43.97412665057197 -3.2000000000100397 157.7169027252128
    vertex 43.978400000012655 -38.300000000128804 157.7169027252069
  endloop
endfacet
facet normal 8.896757484955923e-12 -1.6188048290966801e-13 -1.0
  outer loop
    vertex 43.978400000012655 -38.300000000128804 157.7169027252069
    vertex 43.97412665057197 -3.2000000000100397 157.7169027252128
    vertex 43.99572665057198 -2.2000000000099957 157.7169027252128
  endloop
endfacet
facet normal 8.896757484955923e-12 -1.6188048290966801e-13 -1.0
  outer loop
    vertex 43.978400000012655 -38.300000000128804 157.7169027252069
    vertex 43.99572665057198 -2.2000000000099957 157.7169027252128
    vertex 43.978400000012655 -41.15511449190821 157.7169027252128
  endloop
endfacet
facet normal 8.896757484955923e-12 -1.6188048290966801e-13 -1.0
  outer loop
    vertex 43.978400000012655 -41.15511449190821 157.7169027252128
    vertex 43.99572665057198 -2.2000000000099957 157.7169027252128
    vertex 43.99767062819849 -42.800000000010066 157.7169027252128
  endloop
endfacet
facet normal 8.896757484955923e-12 -1.6188048290966801e-13 -1.0
  outer loop
    vertex 43.99767062819849 -42.800000000010066 157.7169027252128
    vertex 43.99572665057198 -2.2000000000099957 157.7169027252128
    vertex 48.80000000001269 -10.319176000010016 157.71690272521286
  endloop
endfacet
facet normal 8.896757484955923e-12 -1.6188048290966801e-13 -1.0
  outer loop
    vertex 48.80000000001269 -10.319176000010016 157.71690272521286
    vertex 43.99572665057198 -2.2000000000099957 157.7169027252128
    vertex 57.80000000001269 -2.2000000000099957 157.7169027252128
  endloop
endfacet
facet normal 8.896757484955923e-12 -1.6188048290966801e-13 -1.0
  outer loop
    vertex 48.80000000001269 -10.319176000010016 157.71690272521286
    vertex 57.80000000001269 -2.2000000000099957 157.7169027252128
    vertex 57.80000000001269 -10.319176000010016 157.71690272521286
  endloop
endfacet
facet normal 8.896757484955923e-12 -1.6188048290966801e-13 -1.0
  outer loop
    vertex 43.99767062819849 -42.800000000010066 157.7169027252128
    vertex 48.80000000001269 -34.70000000001003 157.71690272521286
    vertex 57.80000000001269 -42.800000000010066 157.7169027252128
  endloop
endfacet
facet normal 8.896757484955923e-12 -1.6188048290966801e-13 -1.0
  outer loop
    vertex 48.80000000001269 -34.70000000001003 157.71690272521286
    vertex 43.99767062819849 -42.800000000010066 157.7169027252128
    vertex 48.80000000001269 -10.319176000010016 157.71690272521286
  endloop
endfacet
facet normal 8.896757484955923e-12 -1.6188048290966801e-13 -1.0
  outer loop
    vertex 57.80000000001269 -42.800000000010066 157.7169027252128
    vertex 48.80000000001269 -34.70000000001003 157.71690272521286
    vertex 57.80000000001269 -34.70000000001003 157.71690272521286
  endloop
endfacet
facet normal 8.896757484955923e-12 -1.6188048290966801e-13 -1.0
  outer loop
    vertex 9.754228198304121 -38.30000000200337 157.71690272216273
    vertex 31.362991741615243 -45.00000000042015 157.71690272528804
    vertex 9.754228198076408 -45.00000004473876 157.7169027263244
  endloop
endfacet
facet normal 8.896757484955923e-12 -1.6188048290966801e-13 -1.0
  outer loop
    vertex 31.362991741615243 -45.00000000042015 157.71690272528804
    vertex 9.754228198304121 -38.30000000200337 157.71690272216273
    vertex 31.362991702441676 -38.2999999926357 157.71690272558936
  endloop
endfacet
facet normal -5.939642984213555e-10 -1.0 3.340720290481544e-12
  outer loop
    vertex 43.97839999999998 -38.30000000011878 160.7169027252069
    vertex 31.362991702441676 -38.2999999926357 157.71690272558936
    vertex 43.978400000012655 -38.300000000128804 157.7169027252069
  endloop
endfacet
facet normal -5.939642984213555e-10 -1.0 3.340720290481544e-12
  outer loop
    vertex 31.362991702441676 -38.2999999926357 157.71690272558936
    vertex 43.97839999999998 -38.30000000011878 160.7169027252069
    vertex 31.362991702429 -38.29999999262568 160.71690272558936
  endloop
endfacet
facet normal 5.065850623278734e-12 1.3842356392882454e-12 -1.0
  outer loop
    vertex 37.40499176243134 6.220005950787219 160.71690272521286
    vertex 31.56299176243128 3.3839597790574766e-14 160.71690272521283
    vertex 31.56299176243128 6.220005950787219 160.71690272521286
  endloop
endfacet
facet normal 5.065850623278734e-12 1.3842356392882454e-12 -1.0
  outer loop
    vertex 0.0 3.3839597790574766e-14 160.71690272521283
    vertex 3.1999999999999975 -3.2000000000000175 160.7169027252128
    vertex 0.0 -45.00000000000005 160.7169027252128
  endloop
endfacet
facet normal 5.065850623278734e-12 1.3842356392882454e-12 -1.0
  outer loop
    vertex 3.1999999999999975 -3.2000000000000175 160.7169027252128
    vertex 0.0 3.3839597790574766e-14 160.71690272521283
    vertex 31.56299176243128 3.3839597790574766e-14 160.71690272521283
  endloop
endfacet
facet normal 5.065850623278734e-12 1.3842356392882454e-12 -1.0
  outer loop
    vertex 3.1999999999999975 -3.2000000000000175 160.7169027252128
    vertex 31.56299176243128 3.3839597790574766e-14 160.71690272521283
    vertex 43.974126650559285 -3.2000000000000175 160.7169027252128
  endloop
endfacet
facet normal 5.065850623278734e-12 1.3842356392882454e-12 -1.0
  outer loop
    vertex 43.974126650559285 -3.2000000000000175 160.7169027252128
    vertex 31.56299176243128 3.3839597790574766e-14 160.71690272521283
    vertex 37.40499176243134 0.0 160.71690272521283
  endloop
endfacet
facet normal 5.065850623278734e-12 1.3842356392882454e-12 -1.0
  outer loop
    vertex 37.40499176243134 0.0 160.71690272521283
    vertex 31.56299176243128 3.3839597790574766e-14 160.71690272521283
    vertex 37.40499176243134 6.220005950787219 160.71690272521286
  endloop
endfacet
facet normal 5.065850623278734e-12 1.3842356392882454e-12 -1.0
  outer loop
    vertex 43.974126650559285 -3.2000000000000175 160.7169027252128
    vertex 37.40499176243134 0.0 160.71690272521283
    vertex 43.995726650559305 -2.199999999999974 160.7169027252128
  endloop
endfacet
facet normal 5.065850623278734e-12 1.3842356392882454e-12 -1.0
  outer loop
    vertex 43.995726650559305 -2.199999999999974 160.7169027252128
    vertex 37.40499176243134 0.0 160.71690272521283
    vertex 60.0 3.3839597790574766e-14 160.71690272521283
  endloop
endfacet
facet normal 5.065850623278734e-12 1.3842356392882454e-12 -1.0
  outer loop
    vertex 43.995726650559305 -2.199999999999974 160.7169027252128
    vertex 60.0 3.3839597790574766e-14 160.71690272521283
    vertex 57.800000000000004 -2.199999999999974 160.7169027252128
  endloop
endfacet
facet normal 5.065850623278734e-12 1.3842356392882454e-12 -1.0
  outer loop
    vertex 57.800000000000004 -2.199999999999974 160.7169027252128
    vertex 60.0 3.3839597790574766e-14 160.71690272521283
    vertex 57.800000000000004 -10.319175999999993 160.71690272521286
  endloop
endfacet
facet normal 5.065850623278734e-12 1.3842356392882454e-12 -1.0
  outer loop
    vertex 57.800000000000004 -10.319175999999993 160.71690272521286
    vertex 60.0 3.3839597790574766e-14 160.71690272521283
    vertex 57.800000000000004 -34.7 160.71690272521286
  endloop
endfacet
facet normal 5.065850623278734e-12 1.3842356392882454e-12 -1.0
  outer loop
    vertex 57.800000000000004 -34.7 160.71690272521286
    vertex 60.0 3.3839597790574766e-14 160.71690272521283
    vertex 57.800000000000004 -42.80000000000005 160.7169027252128
  endloop
endfacet
facet normal 5.065850623278734e-12 1.3842356392882454e-12 -1.0
  outer loop
    vertex 43.97839999999998 -38.30000000011878 160.7169027252069
    vertex 31.362991741602563 -45.000000000410125 160.716902725288
    vertex 31.362991702429 -38.29999999262568 160.71690272558936
  endloop
endfacet
facet normal 5.065850623278734e-12 1.3842356392882454e-12 -1.0
  outer loop
    vertex 31.362991741602563 -45.000000000410125 160.716902725288
    vertex 43.97839999999998 -38.30000000011878 160.7169027252069
    vertex 43.97839999999998 -41.15511449189819 160.7169027252128
  endloop
endfacet
facet normal 5.065850623278734e-12 1.3842356392882454e-12 -1.0
  outer loop
    vertex 31.362991741602563 -45.000000000410125 160.716902725288
    vertex 43.97839999999998 -41.15511449189819 160.7169027252128
    vertex 43.997670628185816 -42.80000000000005 160.7169027252128
  endloop
endfacet
facet normal 5.065850623278734e-12 1.3842356392882454e-12 -1.0
  outer loop
    vertex 31.362991741602563 -45.000000000410125 160.716902725288
    vertex 43.997670628185816 -42.80000000000005 160.7169027252128
    vertex 60.0 -45.00000000000005 160.7169027252128
  endloop
endfacet
facet normal 5.065850623278734e-12 1.3842356392882454e-12 -1.0
  outer loop
    vertex 60.0 -45.00000000000005 160.7169027252128
    vertex 43.997670628185816 -42.80000000000005 160.7169027252128
    vertex 57.800000000000004 -42.80000000000005 160.7169027252128
  endloop
endfacet
facet normal 5.065850623278734e-12 1.3842356392882454e-12 -1.0
  outer loop
    vertex 60.0 -45.00000000000005 160.7169027252128
    vertex 57.800000000000004 -42.80000000000005 160.7169027252128
    vertex 60.0 3.3839597790574766e-14 160.71690272521283
  endloop
endfacet
facet normal 5.065850623278734e-12 1.3842356392882454e-12 -1.0
  outer loop
    vertex 57.800000000000004 -10.319175999999993 160.71690272521286
    vertex 48.800000000000004 -34.7 160.71690272521286
    vertex 48.800000000000004 -10.319175999999993 160.71690272521286
  endloop
endfacet
facet normal 5.065850623278734e-12 1.3842356392882454e-12 -1.0
  outer loop
    vertex 48.800000000000004 -34.7 160.71690272521286
    vertex 57.800000000000004 -10.319175999999993 160.71690272521286
    vertex 57.800000000000004 -34.7 160.71690272521286
  endloop
endfacet
facet normal 5.065850623278734e-12 1.3842356392882454e-12 -1.0
  outer loop
    vertex 0.0 -45.00000000000005 160.7169027252128
    vertex 3.1999999999999975 -38.300000000059015 160.71690272512618
    vertex 9.754228198063728 -45.00000004472874 160.71690272632438
  endloop
endfacet
facet normal 5.065850623278734e-12 1.3842356392882454e-12 -1.0
  outer loop
    vertex 3.1999999999999975 -38.300000000059015 160.71690272512618
    vertex 0.0 -45.00000000000005 160.7169027252128
    vertex 3.1999999999999975 -3.2000000000000175 160.7169027252128
  endloop
endfacet
facet normal 5.065850623278734e-12 1.3842356392882454e-12 -1.0
  outer loop
    vertex 9.754228198063728 -45.00000004472874 160.71690272632438
    vertex 3.1999999999999975 -38.300000000059015 160.71690272512618
    vertex 9.754228198291441 -38.300000001993354 160.71690272216273
  endloop
endfacet
facet normal 1.0 -0.0 4.22667383973038e-12
  outer loop
    vertex 48.80000000001269 -10.319176000010016 157.71690272521286
    vertex 48.800000000000004 -34.7 160.71690272521286
    vertex 48.80000000001269 -34.70000000001003 157.71690272521286
  endloop
endfacet
facet normal 1.0 -0.0 4.22667383973038e-12
  outer loop
    vertex 48.800000000000004 -34.7 160.71690272521286
    vertex 48.80000000001269 -10.319176000010016 157.71690272521286
    vertex 48.800000000000004 -10.319175999999993 160.71690272521286
  endloop
endfacet
facet normal -2.9512843165869305e-10 -1.0 3.3406229955356643e-12
  outer loop
    vertex 9.754228198291441 -38.300000001993354 160.71690272216273
    vertex 3.2000000000126776 -38.30000000006903 157.71690272512618
    vertex 9.754228198304121 -38.30000000200337 157.71690272216273
  endloop
endfacet
facet normal -2.9512843165869305e-10 -1.0 3.3406229955356643e-12
  outer loop
    vertex 3.2000000000126776 -38.30000000006903 157.71690272512618
    vertex 9.754228198291441 -38.300000001993354 160.71690272216273
    vertex 3.1999999999999975 -38.300000000059015 160.71690272512618
  endloop
endfacet
facet normal 0.0 -1.0 3.3406229967830757e-12
  outer loop
    vertex 57.800000000000004 -42.80000000000005 160.7169027252128
    vertex 43.99767062819849 -42.800000000010066 157.7169027252128
    vertex 57.80000000001269 -42.800000000010066 157.7169027252128
  endloop
endfacet
facet normal 0.0 -1.0 3.3406229967830757e-12
  outer loop
    vertex 43.99767062819849 -42.800000000010066 157.7169027252128
    vertex 57.800000000000004 -42.80000000000005 160.7169027252128
    vertex 43.997670628185816 -42.80000000000005 160.7169027252128
  endloop
endfacet
facet normal 1.0 2.3488252622092024e-26 4.2266738397303794e-12
  outer loop
    vertex 57.80000000001269 -2.2000000000099957 157.7169027252128
    vertex 57.800000000000004 -10.319175999999993 160.71690272521286
    vertex 57.80000000001269 -10.319176000010016 157.71690272521286
  endloop
endfacet
facet normal 1.0 2.3488252622092024e-26 4.2266738397303794e-12
  outer loop
    vertex 57.800000000000004 -10.319175999999993 160.71690272521286
    vertex 57.80000000001269 -2.2000000000099957 157.7169027252128
    vertex 57.800000000000004 -2.199999999999974 160.7169027252128
  endloop
endfacet
facet normal -0.9999313807927296 -0.011714679079909982 -4.186764485248938e-12
  outer loop
    vertex 43.997670628185816 -42.80000000000005 160.7169027252128
    vertex 43.978400000012655 -41.15511449190821 157.7169027252128
    vertex 43.99767062819849 -42.800000000010066 157.7169027252128
  endloop
endfacet
facet normal -0.9999313807927296 -0.011714679079909982 -4.186764485248938e-12
  outer loop
    vertex 43.978400000012655 -41.15511449190821 157.7169027252128
    vertex 43.997670628185816 -42.80000000000005 160.7169027252128
    vertex 43.97839999999998 -41.15511449189819 160.7169027252128
  endloop
endfacet
facet normal 0.0 1.0 -3.3406229967830757e-12
  outer loop
    vertex 43.995726650559305 -2.199999999999974 160.7169027252128
    vertex 57.80000000001269 -2.2000000000099957 157.7169027252128
    vertex 43.99572665057198 -2.2000000000099957 157.7169027252128
  endloop
endfacet
facet normal 0.0 1.0 -3.3406229967830757e-12
  outer loop
    vertex 57.80000000001269 -2.2000000000099957 157.7169027252128
    vertex 43.995726650559305 -2.199999999999974 160.7169027252128
    vertex 57.800000000000004 -2.199999999999974 160.7169027252128
  endloop
endfacet
facet normal -0.9997668015976128 0.02159496291452238 -4.297345585975183e-12
  outer loop
    vertex 43.974126650559285 -3.2000000000000175 160.7169027252128
    vertex 43.99572665057198 -2.2000000000099957 157.7169027252128
    vertex 43.97412665057197 -3.2000000000100397 157.7169027252128
  endloop
endfacet
facet normal -0.9997668015976128 0.02159496291452238 -4.297345585975183e-12
  outer loop
    vertex 43.99572665057198 -2.2000000000099957 157.7169027252128
    vertex 43.974126650559285 -3.2000000000000175 160.7169027252128
    vertex 43.995726650559305 -2.199999999999974 160.7169027252128
  endloop
endfacet
facet normal 0.0 1.0 -3.3406229967830757e-12
  outer loop
    vertex 48.800000000000004 -34.7 160.71690272521286
    vertex 57.80000000001269 -34.70000000001003 157.71690272521286
    vertex 48.80000000001269 -34.70000000001003 157.71690272521286
  endloop
endfacet
facet normal 0.0 1.0 -3.3406229967830757e-12
  outer loop
    vertex 57.80000000001269 -34.70000000001003 157.71690272521286
    vertex 48.800000000000004 -34.7 160.71690272521286
    vertex 57.800000000000004 -34.7 160.71690272521286
  endloop
endfacet
facet normal 1.0 5.846800648775929e-09 4.226189748979813e-12
  outer loop
    vertex 31.362991702441676 -38.2999999926357 157.71690272558936
    vertex 31.362991741602563 -45.000000000410125 160.716902725288
    vertex 31.362991741615243 -45.00000000042015 157.71690272528804
  endloop
endfacet
facet normal 1.0 5.846800648775929e-09 4.226189748979813e-12
  outer loop
    vertex 31.362991741602563 -45.000000000410125 160.716902725288
    vertex 31.362991702441676 -38.2999999926357 157.71690272558936
    vertex 31.362991702429 -38.29999999262568 160.71690272558936
  endloop
endfacet
facet normal 1.0 -2.3543858885336557e-26 4.2266738397303794e-12
  outer loop
    vertex 57.80000000001269 -34.70000000001003 157.71690272521286
    vertex 57.800000000000004 -42.80000000000005 160.7169027252128
    vertex 57.80000000001269 -42.800000000010066 157.7169027252128
  endloop
endfacet
facet normal 1.0 -2.3543858885336557e-26 4.2266738397303794e-12
  outer loop
    vertex 57.800000000000004 -42.80000000000005 160.7169027252128
    vertex 57.80000000001269 -34.70000000001003 157.71690272521286
    vertex 57.800000000000004 -34.7 160.71690272521286
  endloop
endfacet
facet normal -1.0 -8.74888716447652e-24 -4.226189768511791e-12
  outer loop
    vertex 43.97839999999998 -41.15511449189819 160.7169027252128
    vertex 43.978400000012655 -38.300000000128804 157.7169027252069
    vertex 43.978400000012655 -41.15511449190821 157.7169027252128
  endloop
endfacet
facet normal -1.0 -8.74888716447652e-24 -4.226189768511791e-12
  outer loop
    vertex 43.978400000012655 -38.300000000128804 157.7169027252069
    vertex 43.97839999999998 -41.15511449189819 160.7169027252128
    vertex 43.97839999999998 -38.30000000011878 160.7169027252069
  endloop
endfacet
facet normal 0.0 -1.0 3.3406229967830757e-12
  outer loop
    vertex 57.800000000000004 -10.319175999999993 160.71690272521286
    vertex 48.80000000001269 -10.319176000010016 157.71690272521286
    vertex 57.80000000001269 -10.319176000010016 157.71690272521286
  endloop
endfacet
facet normal 0.0 -1.0 3.3406229967830757e-12
  outer loop
    vertex 48.80000000001269 -10.319176000010016 157.71690272521286
    vertex 57.800000000000004 -10.319175999999993 160.71690272521286
    vertex 48.800000000000004 -10.319175999999993 160.71690272521286
  endloop
endfacet
facet normal 1.0 -1.01616322537114e-27 2.0269454187087443e-12
  outer loop
    vertex 60.0 3.3839597790574766e-14 160.71690272521283
    vertex 59.99999999999595 -44.999999999997456 162.7169027252128
    vertex 60.0 -45.00000000000005 160.7169027252128
  endloop
endfacet
facet normal 1.0 -1.01616322537114e-27 2.0269454187087443e-12
  outer loop
    vertex 59.99999999999595 -44.999999999997456 162.7169027252128
    vertex 60.0 3.3839597790574766e-14 160.71690272521283
    vertex 59.99999999999595 2.630679296194547e-12 162.71690272521283
  endloop
endfacet
facet normal -6.172799566142441e-30 1.0 -3.3407202929917487e-12
  outer loop
    vertex 3.1999999999999975 -3.2000000000000175 160.7169027252128
    vertex 43.97412665057197 -3.2000000000100397 157.7169027252128
    vertex 3.2000000000126776 -3.2000000000100397 157.7169027252128
  endloop
endfacet
facet normal -6.172799566142441e-30 1.0 -3.3407202929917487e-12
  outer loop
    vertex 43.97412665057197 -3.2000000000100397 157.7169027252128
    vertex 3.1999999999999975 -3.2000000000000175 160.7169027252128
    vertex 43.974126650559285 -3.2000000000000175 160.7169027252128
  endloop
endfacet
facet normal 0.0 1.0 -1.2984198492019861e-12
  outer loop
    vertex -4.053890837417489e-12 2.630679296194547e-12 162.71690272521283
    vertex 31.56299176243128 3.3839597790574766e-14 160.71690272521283
    vertex 0.0 3.3839597790574766e-14 160.71690272521283
  endloop
endfacet
facet normal 0.0 1.0 -1.2984198492019861e-12
  outer loop
    vertex 31.56299176243128 3.3839597790574766e-14 160.71690272521283
    vertex -4.053890837417489e-12 2.630679296194547e-12 162.71690272521283
    vertex 31.562991762427224 2.630679296194547e-12 162.71690272521283
  endloop
endfacet
facet normal 0.0 1.0 -1.2984198492019863e-12
  outer loop
    vertex 31.562991762427224 6.220005950789816 162.71690272521283
    vertex 37.40499176243134 6.220005950787219 160.71690272521286
    vertex 31.56299176243128 6.220005950787219 160.71690272521286
  endloop
endfacet
facet normal 0.0 1.0 -1.2984198492019863e-12
  outer loop
    vertex 37.40499176243134 6.220005950787219 160.71690272521286
    vertex 31.562991762427224 6.220005950789816 162.71690272521283
    vertex 37.40499176242728 6.220005950789816 162.71690272521283
  endloop
endfacet
facet normal -1.0 1.0431697658392667e-23 -4.226659762925549e-12
  outer loop
    vertex 3.1999999999999975 -38.300000000059015 160.71690272512618
    vertex 3.2000000000126776 -3.2000000000100397 157.7169027252128
    vertex 3.2000000000126776 -38.30000000006903 157.71690272512618
  endloop
endfacet
facet normal -1.0 1.0431697658392667e-23 -4.226659762925549e-12
  outer loop
    vertex 3.2000000000126776 -3.2000000000100397 157.7169027252128
    vertex 3.1999999999999975 -38.300000000059015 160.71690272512618
    vertex 3.1999999999999975 -3.2000000000000175 160.7169027252128
  endloop
endfacet
facet normal 1.0 -7.351656172598037e-27 2.0269454187087443e-12
  outer loop
    vertex 37.40499176243134 6.220005950787219 160.71690272521286
    vertex 37.40499176242728 2.5968396984039723e-12 162.71690272521283
    vertex 37.40499176243134 0.0 160.71690272521283
  endloop
endfacet
facet normal 1.0 -7.351656172598037e-27 2.0269454187087443e-12
  outer loop
    vertex 37.40499176242728 2.5968396984039723e-12 162.71690272521283
    vertex 37.40499176243134 6.220005950787219 160.71690272521286
    vertex 37.40499176242728 6.220005950789816 162.71690272521283
  endloop
endfacet
facet normal -1.0 7.351656172598077e-27 -2.0269454187087443e-12
  outer loop
    vertex 31.562991762427224 2.630679296194547e-12 162.71690272521283
    vertex 31.56299176243128 6.220005950787219 160.71690272521286
    vertex 31.56299176243128 3.3839597790574766e-14 160.71690272521283
  endloop
endfacet
facet normal -1.0 7.351656172598077e-27 -2.0269454187087443e-12
  outer loop
    vertex 31.56299176243128 6.220005950787219 160.71690272521286
    vertex 31.562991762427224 2.630679296194547e-12 162.71690272521283
    vertex 31.562991762427224 6.220005950789816 162.71690272521283
  endloop
endfacet
facet normal -1.4976581302727632e-15 1.0 -1.298419849201989e-12
  outer loop
    vertex 37.40499176242728 2.5968396984039723e-12 162.71690272521283
    vertex 60.0 3.3839597790574766e-14 160.71690272521283
    vertex 37.40499176243134 0.0 160.71690272521283
  endloop
endfacet
facet normal -1.4976581302727632e-15 1.0 -1.298419849201989e-12
  outer loop
    vertex 60.0 3.3839597790574766e-14 160.71690272521283
    vertex 37.40499176242728 2.5968396984039723e-12 162.71690272521283
    vertex 59.99999999999595 2.630679296194547e-12 162.71690272521283
  endloop
endfacet
endsolid EncoderHolderBody
