solid EncoderHolderBody
facet normal 1.0 -2.395393806037682e-15 -6.561937514228869e-15
  outer loop
    vertex 37.40499176243122 185.65201995078726 32.84351005600005
    vertex 37.40499176243124 182.48001400000004 41.421755027999986
    vertex 37.40499176243122 182.480014 32.843510056000014
  endloop
endfacet
facet normal 1.0 -2.395393806037682e-15 -6.561937514228869e-15
  outer loop
    vertex 37.40499176243124 182.48001400000004 41.421755027999986
    vertex 37.40499176243122 185.65201995078726 32.84351005600005
    vertex 37.40499176243134 185.6520199507872 50.00000000000003
  endloop
endfacet
facet normal 1.0 -2.395393806037682e-15 -6.561937514228869e-15
  outer loop
    vertex 37.40499176243134 185.6520199507872 50.00000000000003
    vertex 37.40499176243122 185.65201995078726 32.84351005600005
    vertex 37.40499176243133 186.1219875858676 49.48193899319713
  endloop
endfacet
facet normal 1.0 -2.395393806037682e-15 -6.561937514228869e-15
  outer loop
    vertex 37.40499176243133 186.1219875858676 49.48193899319713
    vertex 37.40499176243122 185.65201995078726 32.84351005600005
    vertex 37.404991762431244 186.12132334590788 32.88044503421462
  endloop
endfacet
facet normal 1.0 -2.395393806037682e-15 -6.561937514228869e-15
  outer loop
    vertex 37.40499176243133 186.1219875858676 49.48193899319713
    vertex 37.404991762431244 186.12132334590788 32.88044503421462
    vertex 37.40499176243122 186.57907093391205 32.990340507114574
  endloop
endfacet
facet normal 1.0 -2.395393806037682e-15 -6.561937514228869e-15
  outer loop
    vertex 37.40499176243133 186.1219875858676 49.48193899319713
    vertex 37.40499176243122 186.57907093391205 32.990340507114574
    vertex 37.40499176243133 186.59195522094797 48.963877986394245
  endloop
endfacet
facet normal 1.0 -2.395393806037682e-15 -6.561937514228869e-15
  outer loop
    vertex 37.40499176243133 186.59195522094797 48.963877986394245
    vertex 37.40499176243122 186.57907093391205 32.990340507114574
    vertex 37.40499176243122 187.01399145000588 33.1704904834349
  endloop
endfacet
facet normal 1.0 -2.395393806037682e-15 -6.561937514228869e-15
  outer loop
    vertex 37.40499176243133 186.59195522094797 48.963877986394245
    vertex 37.40499176243122 187.01399145000588 33.1704904834349
    vertex 37.40499176243132 187.4204412890414 47.83665219971892
  endloop
endfacet
facet normal 1.0 -2.395393806037682e-15 -6.561937514228869e-15
  outer loop
    vertex 37.40499176243132 187.4204412890414 47.83665219971892
    vertex 37.40499176243122 187.01399145000588 33.1704904834349
    vertex 37.40499176243122 187.41537570766462 33.41645907287516
  endloop
endfacet
facet normal 1.0 -2.395393806037682e-15 -6.561937514228869e-15
  outer loop
    vertex 37.40499176243132 187.4204412890414 47.83665219971892
    vertex 37.40499176243122 187.41537570766462 33.41645907287516
    vertex 37.40499176243122 187.77334029434687 33.722189712440375
  endloop
endfacet
facet normal 1.0 -2.395393806037682e-15 -6.561937514228869e-15
  outer loop
    vertex 37.40499176243132 187.4204412890414 47.83665219971892
    vertex 37.40499176243122 187.77334029434687 33.722189712440375
    vertex 37.40499176243132 188.12870622130472 46.63025760221082
  endloop
endfacet
facet normal 1.0 -2.395393806037682e-15 -6.561937514228869e-15
  outer loop
    vertex 37.40499176243132 188.12870622130472 46.63025760221082
    vertex 37.40499176243122 187.77334029434687 33.722189712440375
    vertex 37.40499176243122 188.07907093391205 34.0801542991226
  endloop
endfacet
facet normal 1.0 -2.395393806037682e-15 -6.561937514228869e-15
  outer loop
    vertex 37.40499176243132 188.12870622130472 46.63025760221082
    vertex 37.40499176243122 188.07907093391205 34.0801542991226
    vertex 37.404991762431244 188.3250395233523 34.48153855678137
  endloop
endfacet
facet normal 1.0 -2.395393806037682e-15 -6.561937514228869e-15
  outer loop
    vertex 37.40499176243132 188.12870622130472 46.63025760221082
    vertex 37.404991762431244 188.3250395233523 34.48153855678137
    vertex 37.40499176243131 188.70925097422764 45.357467388143974
  endloop
endfacet
facet normal 1.0 -2.395393806037682e-15 -6.561937514228869e-15
  outer loop
    vertex 37.40499176243131 188.70925097422764 45.357467388143974
    vertex 37.404991762431244 188.3250395233523 34.48153855678137
    vertex 37.40499176243125 188.86415317707048 35.77242337253578
  endloop
endfacet
facet normal 1.0 -2.395393806037682e-15 -6.561937514228869e-15
  outer loop
    vertex 37.40499176243131 188.70925097422764 45.357467388143974
    vertex 37.40499176243125 188.86415317707048 35.77242337253578
    vertex 37.4049917624313 189.15592879373062 44.031757742431616
  endloop
endfacet
facet normal 1.0 -2.395393806037682e-15 -6.561937514228869e-15
  outer loop
    vertex 37.4049917624313 189.15592879373062 44.031757742431616
    vertex 37.40499176243125 188.86415317707048 35.77242337253578
    vertex 37.404991762431266 189.26775980719052 37.11187431500954
  endloop
endfacet
facet normal 1.0 -2.395393806037682e-15 -6.561937514228869e-15
  outer loop
    vertex 37.4049917624313 189.15592879373062 44.031757742431616
    vertex 37.404991762431266 189.26775980719052 37.11187431500954
    vertex 37.404991762431294 189.46401029642763 42.66716515602839
  endloop
endfacet
facet normal 1.0 -2.395393806037682e-15 -6.561937514228869e-15
  outer loop
    vertex 37.404991762431294 189.46401029642763 42.66716515602839
    vertex 37.404991762431266 189.26775980719052 37.11187431500954
    vertex 37.404991762431266 189.5315860640908 38.48570940167049
  endloop
endfacet
facet normal 1.0 -2.395393806037682e-15 -6.561937514228869e-15
  outer loop
    vertex 37.404991762431294 189.46401029642763 42.66716515602839
    vertex 37.404991762431266 189.5315860640908 38.48570940167049
    vertex 37.40499176243129 189.63023354389952 41.27813780886399
  endloop
endfacet
facet normal 1.0 -2.395393806037682e-15 -6.561937514228869e-15
  outer loop
    vertex 37.40499176243129 189.63023354389952 41.27813780886399
    vertex 37.404991762431266 189.5315860640908 38.48570940167049
    vertex 37.40499176243128 189.6528385797961 39.879382593852156
  endloop
endfacet
facet normal 1.0 -2.395393806037682e-15 -6.561937514228869e-15
  outer loop
    vertex 37.40499176243124 182.48001400000004 41.421755027999986
    vertex 37.40499176243134 179.432014 50.00000000000001
    vertex 37.40499176243126 179.43201399999998 41.421755028
  endloop
endfacet
facet normal 1.0 -2.395393806037682e-15 -6.561937514228869e-15
  outer loop
    vertex 37.40499176243134 179.432014 50.00000000000001
    vertex 37.40499176243124 182.48001400000004 41.421755027999986
    vertex 37.40499176243134 185.6520199507872 50.00000000000003
  endloop
endfacet
facet normal 4.36879979396692e-15 0.9476544188219409 0.319297827251063
  outer loop
    vertex 31.562991762431242 189.15592879373062 44.03175774243162
    vertex 37.40499176243131 188.70925097422764 45.357467388143974
    vertex 37.4049917624313 189.15592879373062 44.031757742431616
  endloop
endfacet
facet normal 4.36879979396692e-15 0.9476544188219409 0.319297827251063
  outer loop
    vertex 37.40499176243131 188.70925097422764 45.357467388143974
    vertex 31.562991762431242 189.15592879373062 44.03175774243162
    vertex 31.562991762431253 188.70925097422764 45.35746738814398
  endloop
endfacet
facet normal 3.784222463447307e-15 0.9754490348464044 0.22022529468073837
  outer loop
    vertex 31.56299176243123 189.46401029642763 42.66716515602839
    vertex 37.4049917624313 189.15592879373062 44.031757742431616
    vertex 37.404991762431294 189.46401029642763 42.66716515602839
  endloop
endfacet
facet normal 3.784222463447307e-15 0.9754490348464044 0.22022529468073837
  outer loop
    vertex 37.4049917624313 189.15592879373062 44.031757742431616
    vertex 31.56299176243123 189.46401029642763 42.66716515602839
    vertex 31.562991762431242 189.15592879373062 44.03175774243162
  endloop
endfacet
facet normal 1.816897395801401e-15 0.9962366670832791 -0.08667469733895886
  outer loop
    vertex 31.562991762431206 189.5315860640908 38.4857094016705
    vertex 37.40499176243128 189.6528385797961 39.879382593852156
    vertex 37.404991762431266 189.5315860640908 38.48570940167049
  endloop
endfacet
facet normal 1.816897395801401e-15 0.9962366670832791 -0.08667469733895886
  outer loop
    vertex 37.40499176243128 189.6528385797961 39.879382593852156
    vertex 31.562991762431206 189.5315860640908 38.4857094016705
    vertex 31.562991762431217 189.65283857979614 39.87938259385216
  endloop
endfacet
facet normal -1.778392857574911e-15 0.8526401643540963 -0.5224985647159425
  outer loop
    vertex 31.56299176243119 188.32503952335227 34.481538556781366
    vertex 37.40499176243122 188.07907093391205 34.0801542991226
    vertex 31.562991762431178 188.07907093391202 34.08015429912257
  endloop
endfacet
facet normal -1.778392857574911e-15 0.8526401643540963 -0.5224985647159425
  outer loop
    vertex 37.40499176243122 188.07907093391205 34.0801542991226
    vertex 31.56299176243119 188.32503952335227 34.481538556781366
    vertex 37.404991762431244 188.3250395233523 34.48153855678137
  endloop
endfacet
facet normal -1.5220828661161176e-15 0.38268343236504954 -0.9238795325113034
  outer loop
    vertex 31.562991762431214 187.01399145000585 33.17049048343492
    vertex 37.40499176243122 186.57907093391205 32.990340507114574
    vertex 31.562991762431203 186.57907093391205 32.990340507114574
  endloop
endfacet
facet normal -1.5220828661161176e-15 0.38268343236504954 -0.9238795325113034
  outer loop
    vertex 37.40499176243122 186.57907093391205 32.990340507114574
    vertex 31.562991762431214 187.01399145000585 33.17049048343492
    vertex 37.40499176243122 187.01399145000588 33.1704904834349
  endloop
endfacet
facet normal -1.0697983911984672e-16 0.922760654111771 -0.3853735528331136
  outer loop
    vertex 31.562991762431196 188.8641531770705 35.77242337253579
    vertex 37.404991762431244 188.3250395233523 34.48153855678137
    vertex 31.56299176243119 188.32503952335227 34.481538556781366
  endloop
endfacet
facet normal -1.0697983911984672e-16 0.922760654111771 -0.3853735528331136
  outer loop
    vertex 37.404991762431244 188.3250395233523 34.48153855678137
    vertex 31.562991762431196 188.8641531770705 35.77242337253579
    vertex 37.40499176243125 188.86415317707048 35.77242337253578
  endloop
endfacet
facet normal 5.604036986443986e-15 0.07845909572787753 -0.9969173337331254
  outer loop
    vertex 37.404991762431244 186.12132334590788 32.88044503421462
    vertex 31.562991762431214 185.6520199507872 32.843510055999985
    vertex 31.562991762431146 186.12132334590788 32.88044503421462
  endloop
endfacet
facet normal 5.604036986443986e-15 0.07845909572787753 -0.9969173337331254
  outer loop
    vertex 31.562991762431214 185.6520199507872 32.843510055999985
    vertex 37.404991762431244 186.12132334590788 32.88044503421462
    vertex 37.40499176243122 185.65201995078726 32.84351005600005
  endloop
endfacet
facet normal 3.159578135942132e-15 0.9929156868264006 0.11882103708543093
  outer loop
    vertex 31.56299176243123 189.63023354389955 41.278137808863995
    vertex 37.404991762431294 189.46401029642763 42.66716515602839
    vertex 37.40499176243129 189.63023354389952 41.27813780886399
  endloop
endfacet
facet normal 3.159578135942132e-15 0.9929156868264006 0.11882103708543093
  outer loop
    vertex 37.404991762431294 189.46401029642763 42.66716515602839
    vertex 31.56299176243123 189.63023354389955 41.278137808863995
    vertex 31.56299176243123 189.46401029642763 42.66716515602839
  endloop
endfacet
facet normal -3.2190517805338314e-15 0.6494480483301616 -0.7604059656000497
  outer loop
    vertex 31.56299176243127 187.77334029434687 33.72218971244036
    vertex 37.40499176243122 187.41537570766462 33.41645907287516
    vertex 31.56299176243119 187.41537570766462 33.41645907287519
  endloop
endfacet
facet normal -3.2190517805338314e-15 0.6494480483301616 -0.7604059656000497
  outer loop
    vertex 37.40499176243122 187.41537570766462 33.41645907287516
    vertex 31.56299176243127 187.77334029434687 33.72218971244036
    vertex 37.40499176243122 187.77334029434687 33.722189712440375
  endloop
endfacet
facet normal 3.974717712774728e-16 0.9574770829614122 -0.28850933365093245
  outer loop
    vertex 31.562991762431196 188.8641531770705 35.77242337253579
    vertex 37.404991762431266 189.26775980719052 37.11187431500954
    vertex 37.40499176243125 188.86415317707048 35.77242337253578
  endloop
endfacet
facet normal 3.974717712774728e-16 0.9574770829614122 -0.28850933365093245
  outer loop
    vertex 37.404991762431266 189.26775980719052 37.11187431500954
    vertex 31.562991762431196 188.8641531770705 35.77242337253579
    vertex 31.562991762431206 189.26775980719054 37.111874315009544
  endloop
endfacet
facet normal 6.190352780553799e-15 0.7406490612841589 0.6718920806341555
  outer loop
    vertex 31.562991762431274 186.591955220948 48.96387798639425
    vertex 37.40499176243133 186.1219875858676 49.48193899319713
    vertex 37.40499176243133 186.59195522094797 48.963877986394245
  endloop
endfacet
facet normal 6.190352780553799e-15 0.7406490612841589 0.6718920806341555
  outer loop
    vertex 37.40499176243133 186.1219875858676 49.48193899319713
    vertex 31.562991762431274 186.591955220948 48.96387798639425
    vertex 31.562991762431274 186.1219875858676 49.48193899319714
  endloop
endfacet
facet normal -1.0 -3.7879421793732115e-15 4.487253576152466e-15
  outer loop
    vertex 31.56299176243128 185.6520199507872 50.00000000000002
    vertex 31.56299176243129 179.432014 41.42175502800007
    vertex 31.56299176243128 179.432014 50.00000000000001
  endloop
endfacet
facet normal -1.0 -3.7879421793732115e-15 4.487253576152466e-15
  outer loop
    vertex 31.56299176243129 179.432014 41.42175502800007
    vertex 31.56299176243128 185.6520199507872 50.00000000000002
    vertex 31.562991762431256 182.48001400000004 41.421755028000085
  endloop
endfacet
facet normal -1.0 -3.7879421793732115e-15 4.487253576152466e-15
  outer loop
    vertex 31.562991762431256 182.48001400000004 41.421755028000085
    vertex 31.562991762431214 185.6520199507872 32.843510055999985
    vertex 31.562991762431214 182.480014 32.843510055999964
  endloop
endfacet
facet normal -1.0 -3.7879421793732115e-15 4.487253576152466e-15
  outer loop
    vertex 31.562991762431214 185.6520199507872 32.843510055999985
    vertex 31.562991762431256 182.48001400000004 41.421755028000085
    vertex 31.56299176243128 185.6520199507872 50.00000000000002
  endloop
endfacet
facet normal -1.0 -3.7879421793732115e-15 4.487253576152466e-15
  outer loop
    vertex 31.562991762431214 185.6520199507872 32.843510055999985
    vertex 31.56299176243128 185.6520199507872 50.00000000000002
    vertex 31.562991762431274 186.1219875858676 49.48193899319714
  endloop
endfacet
facet normal -1.0 -3.7879421793732115e-15 4.487253576152466e-15
  outer loop
    vertex 31.562991762431214 185.6520199507872 32.843510055999985
    vertex 31.562991762431274 186.1219875858676 49.48193899319714
    vertex 31.562991762431146 186.12132334590788 32.88044503421462
  endloop
endfacet
facet normal -1.0 -3.7879421793732115e-15 4.487253576152466e-15
  outer loop
    vertex 31.562991762431146 186.12132334590788 32.88044503421462
    vertex 31.562991762431274 186.1219875858676 49.48193899319714
    vertex 31.562991762431203 186.57907093391205 32.990340507114574
  endloop
endfacet
facet normal -1.0 -3.7879421793732115e-15 4.487253576152466e-15
  outer loop
    vertex 31.562991762431203 186.57907093391205 32.990340507114574
    vertex 31.562991762431274 186.1219875858676 49.48193899319714
    vertex 31.562991762431274 186.591955220948 48.96387798639425
  endloop
endfacet
facet normal -1.0 -3.7879421793732115e-15 4.487253576152466e-15
  outer loop
    vertex 31.562991762431203 186.57907093391205 32.990340507114574
    vertex 31.562991762431274 186.591955220948 48.96387798639425
    vertex 31.562991762431214 187.01399145000585 33.17049048343492
  endloop
endfacet
facet normal -1.0 -3.7879421793732115e-15 4.487253576152466e-15
  outer loop
    vertex 31.562991762431214 187.01399145000585 33.17049048343492
    vertex 31.562991762431274 186.591955220948 48.96387798639425
    vertex 31.562991762431263 187.4204412890414 47.83665219971892
  endloop
endfacet
facet normal -1.0 -3.7879421793732115e-15 4.487253576152466e-15
  outer loop
    vertex 31.562991762431214 187.01399145000585 33.17049048343492
    vertex 31.562991762431263 187.4204412890414 47.83665219971892
    vertex 31.56299176243119 187.41537570766462 33.41645907287519
  endloop
endfacet
facet normal -1.0 -3.7879421793732115e-15 4.487253576152466e-15
  outer loop
    vertex 31.56299176243119 187.41537570766462 33.41645907287519
    vertex 31.562991762431263 187.4204412890414 47.83665219971892
    vertex 31.56299176243127 187.77334029434687 33.72218971244036
  endloop
endfacet
facet normal -1.0 -3.7879421793732115e-15 4.487253576152466e-15
  outer loop
    vertex 31.56299176243127 187.77334029434687 33.72218971244036
    vertex 31.562991762431263 187.4204412890414 47.83665219971892
    vertex 31.562991762431263 188.12870622130472 46.630257602210825
  endloop
endfacet
facet normal -1.0 -3.7879421793732115e-15 4.487253576152466e-15
  outer loop
    vertex 31.56299176243127 187.77334029434687 33.72218971244036
    vertex 31.562991762431263 188.12870622130472 46.630257602210825
    vertex 31.562991762431178 188.07907093391202 34.08015429912257
  endloop
endfacet
facet normal -1.0 -3.7879421793732115e-15 4.487253576152466e-15
  outer loop
    vertex 31.562991762431178 188.07907093391202 34.08015429912257
    vertex 31.562991762431263 188.12870622130472 46.630257602210825
    vertex 31.56299176243119 188.32503952335227 34.481538556781366
  endloop
endfacet
facet normal -1.0 -3.7879421793732115e-15 4.487253576152466e-15
  outer loop
    vertex 31.56299176243119 188.32503952335227 34.481538556781366
    vertex 31.562991762431263 188.12870622130472 46.630257602210825
    vertex 31.562991762431253 188.70925097422764 45.35746738814398
  endloop
endfacet
facet normal -1.0 -3.7879421793732115e-15 4.487253576152466e-15
  outer loop
    vertex 31.56299176243119 188.32503952335227 34.481538556781366
    vertex 31.562991762431253 188.70925097422764 45.35746738814398
    vertex 31.562991762431196 188.8641531770705 35.77242337253579
  endloop
endfacet
facet normal -1.0 -3.7879421793732115e-15 4.487253576152466e-15
  outer loop
    vertex 31.562991762431196 188.8641531770705 35.77242337253579
    vertex 31.562991762431253 188.70925097422764 45.35746738814398
    vertex 31.562991762431242 189.15592879373062 44.03175774243162
  endloop
endfacet
facet normal -1.0 -3.7879421793732115e-15 4.487253576152466e-15
  outer loop
    vertex 31.562991762431196 188.8641531770705 35.77242337253579
    vertex 31.562991762431242 189.15592879373062 44.03175774243162
    vertex 31.562991762431206 189.26775980719054 37.111874315009544
  endloop
endfacet
facet normal -1.0 -3.7879421793732115e-15 4.487253576152466e-15
  outer loop
    vertex 31.562991762431206 189.26775980719054 37.111874315009544
    vertex 31.562991762431242 189.15592879373062 44.03175774243162
    vertex 31.56299176243123 189.46401029642763 42.66716515602839
  endloop
endfacet
facet normal -1.0 -3.7879421793732115e-15 4.487253576152466e-15
  outer loop
    vertex 31.562991762431206 189.26775980719054 37.111874315009544
    vertex 31.56299176243123 189.46401029642763 42.66716515602839
    vertex 31.562991762431206 189.5315860640908 38.4857094016705
  endloop
endfacet
facet normal -1.0 -3.7879421793732115e-15 4.487253576152466e-15
  outer loop
    vertex 31.562991762431206 189.5315860640908 38.4857094016705
    vertex 31.56299176243123 189.46401029642763 42.66716515602839
    vertex 31.56299176243123 189.63023354389955 41.278137808863995
  endloop
endfacet
facet normal -1.0 -3.7879421793732115e-15 4.487253576152466e-15
  outer loop
    vertex 31.562991762431206 189.5315860640908 38.4857094016705
    vertex 31.56299176243123 189.63023354389955 41.278137808863995
    vertex 31.562991762431217 189.65283857979614 39.87938259385216
  endloop
endfacet
facet normal -1.9308226515220034e-15 -1.0 3.944815973550463e-15
  outer loop
    vertex 37.40499176243122 182.480014 32.843510056000014
    vertex 31.562991762431256 182.48001400000004 41.421755028000085
    vertex 31.562991762431214 182.480014 32.843510055999964
  endloop
endfacet
facet normal -1.9308226515220034e-15 -1.0 3.944815973550463e-15
  outer loop
    vertex 31.562991762431256 182.48001400000004 41.421755028000085
    vertex 37.40499176243122 182.480014 32.843510056000014
    vertex 37.40499176243124 182.48001400000004 41.421755027999986
  endloop
endfacet
facet normal 1.4481169886415158e-14 1.6126406880955134e-28 1.0
  outer loop
    vertex 31.56299176243129 179.432014 41.42175502800007
    vertex 37.40499176243124 182.48001400000004 41.421755027999986
    vertex 31.562991762431256 182.48001400000004 41.421755028000085
  endloop
endfacet
facet normal 1.4481169886415158e-14 1.6126406880955134e-28 1.0
  outer loop
    vertex 37.40499176243124 182.48001400000004 41.421755027999986
    vertex 31.56299176243129 179.432014 41.42175502800007
    vertex 37.40499176243126 179.43201399999998 41.421755028
  endloop
endfacet
facet normal 1.1130771624965865e-15 0.9820558331287585 -0.18859040436294755
  outer loop
    vertex 31.562991762431206 189.26775980719054 37.111874315009544
    vertex 37.404991762431266 189.5315860640908 38.48570940167049
    vertex 37.404991762431266 189.26775980719052 37.11187431500954
  endloop
endfacet
facet normal 1.1130771624965865e-15 0.9820558331287585 -0.18859040436294755
  outer loop
    vertex 37.404991762431266 189.5315860640908 38.48570940167049
    vertex 31.562991762431206 189.26775980719054 37.111874315009544
    vertex 31.562991762431206 189.5315860640908 38.4857094016705
  endloop
endfacet
facet normal 1.0136818920490523e-14 8.001150923639531e-15 -1.0
  outer loop
    vertex 37.40499176243122 185.65201995078726 32.84351005600005
    vertex 31.562991762431214 182.480014 32.843510055999964
    vertex 31.562991762431214 185.6520199507872 32.843510055999985
  endloop
endfacet
facet normal 1.0136818920490523e-14 8.001150923639531e-15 -1.0
  outer loop
    vertex 31.562991762431214 182.480014 32.843510055999964
    vertex 37.40499176243122 185.65201995078726 32.84351005600005
    vertex 37.40499176243122 182.480014 32.843510056000014
  endloop
endfacet
facet normal -1.2931729907712292e-15 0.7604059656000481 -0.6494480483301635
  outer loop
    vertex 31.562991762431178 188.07907093391202 34.08015429912257
    vertex 37.40499176243122 187.77334029434687 33.722189712440375
    vertex 31.56299176243127 187.77334029434687 33.72218971244036
  endloop
endfacet
facet normal -1.2931729907712292e-15 0.7604059656000481 -0.6494480483301635
  outer loop
    vertex 37.40499176243122 187.77334029434687 33.722189712440375
    vertex 31.562991762431178 188.07907093391202 34.08015429912257
    vertex 37.40499176243122 188.07907093391205 34.0801542991226
  endloop
endfacet
facet normal 1.1114372295751819e-16 0.23344536385590325 -0.9723699203976771
  outer loop
    vertex 31.562991762431203 186.57907093391205 32.990340507114574
    vertex 37.404991762431244 186.12132334590788 32.88044503421462
    vertex 31.562991762431146 186.12132334590788 32.88044503421462
  endloop
endfacet
facet normal 1.1114372295751819e-16 0.23344536385590325 -0.9723699203976771
  outer loop
    vertex 37.404991762431244 186.12132334590788 32.88044503421462
    vertex 31.562991762431203 186.57907093391205 32.990340507114574
    vertex 37.40499176243122 186.57907093391205 32.990340507114574
  endloop
endfacet
facet normal 1.5322447754654277e-15 0.8623646775664507 0.5062876286121472
  outer loop
    vertex 31.562991762431263 188.12870622130472 46.630257602210825
    vertex 37.40499176243132 187.4204412890414 47.83665219971892
    vertex 37.40499176243132 188.12870622130472 46.63025760221082
  endloop
endfacet
facet normal 1.5322447754654277e-15 0.8623646775664507 0.5062876286121472
  outer loop
    vertex 37.40499176243132 187.4204412890414 47.83665219971892
    vertex 31.562991762431263 188.12870622130472 46.630257602210825
    vertex 31.562991762431263 187.4204412890414 47.83665219971892
  endloop
endfacet
facet normal -9.398645486281794e-17 0.7406490612841533 0.6718920806341615
  outer loop
    vertex 31.562991762431274 186.1219875858676 49.48193899319714
    vertex 37.40499176243134 185.6520199507872 50.00000000000003
    vertex 37.40499176243133 186.1219875858676 49.48193899319713
  endloop
endfacet
facet normal -9.398645486281794e-17 0.7406490612841533 0.6718920806341615
  outer loop
    vertex 37.40499176243134 185.6520199507872 50.00000000000003
    vertex 31.562991762431274 186.1219875858676 49.48193899319714
    vertex 31.56299176243128 185.6520199507872 50.00000000000002
  endloop
endfacet
facet normal 4.907120676863245e-15 0.9098261255734119 0.4149896639966763
  outer loop
    vertex 31.562991762431253 188.70925097422764 45.35746738814398
    vertex 37.40499176243132 188.12870622130472 46.63025760221082
    vertex 37.40499176243131 188.70925097422764 45.357467388143974
  endloop
endfacet
facet normal 4.907120676863245e-15 0.9098261255734119 0.4149896639966763
  outer loop
    vertex 37.40499176243132 188.12870622130472 46.63025760221082
    vertex 31.562991762431253 188.70925097422764 45.35746738814398
    vertex 31.562991762431263 188.12870622130472 46.630257602210825
  endloop
endfacet
facet normal 1.5440333540354505e-15 0.8057725922171418 0.592225066703249
  outer loop
    vertex 31.562991762431263 187.4204412890414 47.83665219971892
    vertex 37.40499176243133 186.59195522094797 48.963877986394245
    vertex 37.40499176243132 187.4204412890414 47.83665219971892
  endloop
endfacet
facet normal 1.5440333540354505e-15 0.8057725922171418 0.592225066703249
  outer loop
    vertex 37.40499176243133 186.59195522094797 48.963877986394245
    vertex 31.562991762431263 187.4204412890414 47.83665219971892
    vertex 31.562991762431274 186.591955220948 48.96387798639425
  endloop
endfacet
facet normal -4.4909194482492906e-15 0.522498564715978 -0.8526401643540743
  outer loop
    vertex 37.40499176243122 187.41537570766462 33.41645907287516
    vertex 31.562991762431214 187.01399145000585 33.17049048343492
    vertex 31.56299176243119 187.41537570766462 33.41645907287519
  endloop
endfacet
facet normal -4.4909194482492906e-15 0.522498564715978 -0.8526401643540743
  outer loop
    vertex 31.562991762431214 187.01399145000585 33.17049048343492
    vertex 37.40499176243122 187.41537570766462 33.41645907287516
    vertex 37.40499176243122 187.01399145000588 33.1704904834349
  endloop
endfacet
facet normal 2.501480487742641e-15 0.9998694394683536 0.016158713353500907
  outer loop
    vertex 31.562991762431217 189.65283857979614 39.87938259385216
    vertex 37.40499176243129 189.63023354389952 41.27813780886399
    vertex 37.40499176243128 189.6528385797961 39.879382593852156
  endloop
endfacet
facet normal 2.501480487742641e-15 0.9998694394683536 0.016158713353500907
  outer loop
    vertex 37.40499176243129 189.63023354389952 41.27813780886399
    vertex 31.562991762431217 189.65283857979614 39.87938259385216
    vertex 31.56299176243123 189.63023354389955 41.278137808863995
  endloop
endfacet
facet normal 9.635292011441615e-14 1.8242919023194223e-11 1.0
  outer loop
    vertex 2.394546936003347e-10 177.432014 50.000000000228944
    vertex 31.56299176243128 179.432014 50.00000000000001
    vertex -2.387899959130848e-15 179.432014 50.00000000000001
  endloop
endfacet
facet normal 9.635292011441615e-14 1.8242919023194223e-11 1.0
  outer loop
    vertex 31.56299176243128 179.432014 50.00000000000001
    vertex 2.394546936003347e-10 177.432014 50.000000000228944
    vertex 60.00000000023946 177.432014 50.000000000228944
  endloop
endfacet
facet normal 9.635292011441615e-14 1.8242919023194223e-11 1.0
  outer loop
    vertex 31.56299176243128 179.432014 50.00000000000001
    vertex 60.00000000023946 177.432014 50.000000000228944
    vertex 37.40499176243134 179.432014 50.00000000000001
  endloop
endfacet
facet normal 9.635292011441615e-14 1.8242919023194223e-11 1.0
  outer loop
    vertex 31.56299176243128 179.432014 50.00000000000001
    vertex 37.40499176243134 179.432014 50.00000000000001
    vertex 31.56299176243128 185.6520199507872 50.00000000000002
  endloop
endfacet
facet normal 9.635292011441615e-14 1.8242919023194223e-11 1.0
  outer loop
    vertex 37.40499176243134 179.432014 50.00000000000001
    vertex 60.00000000023946 177.432014 50.000000000228944
    vertex 60.0 179.432014 50.00000000000001
  endloop
endfacet
facet normal 9.635292011441615e-14 1.8242919023194223e-11 1.0
  outer loop
    vertex 37.40499176243134 185.6520199507872 50.00000000000003
    vertex 31.56299176243128 185.6520199507872 50.00000000000002
    vertex 37.40499176243134 179.432014 50.00000000000001
  endloop
endfacet
facet normal -1.1972848918872582e-10 1.0 -1.1447175653478368e-10
  outer loop
    vertex -2.0864255212416083e-08 179.43201402350894 24.999999985512737
    vertex 31.56299176243129 179.432014 41.42175502800007
    vertex 37.40499176243126 179.43201399999998 41.421755028
  endloop
endfacet
facet normal -1.1972848918872582e-10 1.0 -1.1447175653478368e-10
  outer loop
    vertex 31.56299176243129 179.432014 41.42175502800007
    vertex -2.0864255212416083e-08 179.43201402350894 24.999999985512737
    vertex -2.387899959130848e-15 179.432014 50.00000000000001
  endloop
endfacet
facet normal -1.1972848918872582e-10 1.0 -1.1447175653478368e-10
  outer loop
    vertex 31.56299176243129 179.432014 41.42175502800007
    vertex -2.387899959130848e-15 179.432014 50.00000000000001
    vertex 31.56299176243128 179.432014 50.00000000000001
  endloop
endfacet
facet normal -1.1972848918872582e-10 1.0 -1.1447175653478368e-10
  outer loop
    vertex 18.53726544589477 179.4320140092658 0.6265850174546905
    vertex 60.0 179.432014 0.0
    vertex 21.459179849987795 179.4320140235091 -1.4487274348989179e-08
  endloop
endfacet
facet normal -1.1972848918872582e-10 1.0 -1.1447175653478368e-10
  outer loop
    vertex 60.0 179.432014 0.0
    vertex 18.53726544589477 179.4320140092658 0.6265850174546905
    vertex 60.0 179.432014 50.00000000000001
  endloop
endfacet
facet normal -1.1972848918872582e-10 1.0 -1.1447175653478368e-10
  outer loop
    vertex 60.0 179.432014 50.00000000000001
    vertex 18.53726544589477 179.4320140092658 0.6265850174546905
    vertex 15.709649898084756 179.43201399733076 1.5934267319473379
  endloop
endfacet
facet normal -1.1972848918872582e-10 1.0 -1.1447175653478368e-10
  outer loop
    vertex 60.0 179.432014 50.00000000000001
    vertex 15.709649898084756 179.43201399733076 1.5934267319473379
    vertex 13.015807161565185 179.4320139878706 2.8870278675377286
  endloop
endfacet
facet normal -1.1972848918872582e-10 1.0 -1.1447175653478368e-10
  outer loop
    vertex 60.0 179.432014 50.00000000000001
    vertex 13.015807161565185 179.4320139878706 2.8870278675377286
    vertex 10.49334370198904 179.4320139810174 4.489329550181471
  endloop
endfacet
facet normal -1.1972848918872582e-10 1.0 -1.1447175653478368e-10
  outer loop
    vertex 60.0 179.432014 50.00000000000001
    vertex 10.49334370198904 179.4320139810174 4.489329550181471
    vertex 8.177473503516273 179.4320139768668 6.377963397947043
  endloop
endfacet
facet normal -1.1972848918872582e-10 1.0 -1.1447175653478368e-10
  outer loop
    vertex 60.0 179.432014 50.00000000000001
    vertex 8.177473503516273 179.4320139768668 6.377963397947043
    vertex 6.100526476091109 179.43201397547682 8.526563787123658
  endloop
endfacet
facet normal -1.1972848918872582e-10 1.0 -1.1447175653478368e-10
  outer loop
    vertex 60.0 179.432014 50.00000000000001
    vertex 6.100526476091109 179.43201397547682 8.526563787123658
    vertex 4.291497124845981 179.43201397686678 10.905135920449364
  endloop
endfacet
facet normal -1.1972848918872582e-10 1.0 -1.1447175653478368e-10
  outer loop
    vertex 60.0 179.432014 50.00000000000001
    vertex 4.291497124845981 179.43201397686678 10.905135920449364
    vertex 2.7756397822779117 179.43201398101732 13.480474559169062
  endloop
endfacet
facet normal -1.1972848918872582e-10 1.0 -1.1447175653478368e-10
  outer loop
    vertex 60.0 179.432014 50.00000000000001
    vertex 2.7756397822779117 179.43201398101732 13.480474559169062
    vertex 1.57411605381962 179.4320139878705 16.216627573357343
  endloop
endfacet
facet normal -1.1972848918872582e-10 1.0 -1.1447175653478368e-10
  outer loop
    vertex 60.0 179.432014 50.00000000000001
    vertex 1.57411605381962 179.4320139878705 16.216627573357343
    vertex 0.7036993985201101 179.4320139973306 19.075397839271904
  endloop
endfacet
facet normal -1.1972848918872582e-10 1.0 -1.1447175653478368e-10
  outer loop
    vertex 60.0 179.432014 50.00000000000001
    vertex 0.7036993985201101 179.4320139973306 19.075397839271904
    vertex 0.17654096893462962 179.43201400926563 22.01687647717104
  endloop
endfacet
facet normal -1.1972848918872582e-10 1.0 -1.1447175653478368e-10
  outer loop
    vertex 60.0 179.432014 50.00000000000001
    vertex 0.17654096893462962 179.43201400926563 22.01687647717104
    vertex -2.0864255212416083e-08 179.43201402350894 24.999999985512737
  endloop
endfacet
facet normal -1.1972848918872582e-10 1.0 -1.1447175653478368e-10
  outer loop
    vertex 60.0 179.432014 50.00000000000001
    vertex -2.0864255212416083e-08 179.43201402350894 24.999999985512737
    vertex 37.40499176243126 179.43201399999998 41.421755028
  endloop
endfacet
facet normal -1.1972848918872582e-10 1.0 -1.1447175653478368e-10
  outer loop
    vertex 60.0 179.432014 50.00000000000001
    vertex 37.40499176243126 179.43201399999998 41.421755028
    vertex 37.40499176243134 179.432014 50.00000000000001
  endloop
endfacet
facet normal 1.0 1.1972854075014693e-10 -5.40208755071655e-26
  outer loop
    vertex 60.0 179.432014 0.0
    vertex 60.00000000023946 177.432014 50.000000000228944
    vertex 60.00000000023946 177.432014 2.2894357096892002e-10
  endloop
endfacet
facet normal 1.0 1.1972854075014693e-10 -5.40208755071655e-26
  outer loop
    vertex 60.00000000023946 177.432014 50.000000000228944
    vertex 60.0 179.432014 0.0
    vertex 60.0 179.432014 50.00000000000001
  endloop
endfacet
facet normal -0.5361840321341854 -1.608222929172272e-10 -0.8441011098703323
  outer loop
    vertex 13.015807161565185 179.4320139878706 2.8870278675377286
    vertex 10.493343702228499 177.4320139810174 4.489329550410415
    vertex 10.49334370198904 179.4320139810174 4.489329550181471
  endloop
endfacet
facet normal -0.5361840321341854 -1.608222929172272e-10 -0.8441011098703323
  outer loop
    vertex 10.493343702228499 177.4320139810174 4.489329550410415
    vertex 13.015807161565185 179.4320139878706 2.8870278675377286
    vertex 13.015807161804643 177.4320139878706 2.887027867766672
  endloop
endfacet
facet normal 3.758942931133618e-10 -1.1447178543945475e-10 -1.0
  outer loop
    vertex 60.0 179.432014 0.0
    vertex 21.45917985022725 177.4320140235091 -1.4258330778020258e-08
    vertex 21.459179849987795 179.4320140235091 -1.4487274348989179e-08
  endloop
endfacet
facet normal 3.758942931133618e-10 -1.1447178543945475e-10 -1.0
  outer loop
    vertex 21.45917985022725 177.4320140235091 -1.4258330778020258e-08
    vertex 60.0 179.432014 0.0
    vertex 60.00000000023946 177.432014 2.2894357096892002e-10
  endloop
endfacet
facet normal -0.7959502327079196 -1.6459483606274234e-10 -0.6053620627791343
  outer loop
    vertex 4.291497125085439 177.43201397686678 10.905135920678308
    vertex 6.100526476091109 179.43201397547682 8.526563787123658
    vertex 6.1005264763305656 177.43201397547682 8.5265637873526
  endloop
endfacet
facet normal -0.7959502327079196 -1.6459483606274234e-10 -0.6053620627791343
  outer loop
    vertex 6.100526476091109 179.43201397547682 8.526563787123658
    vertex 4.291497125085439 177.43201397686678 10.905135920678308
    vertex 4.291497124845981 179.43201397686678 10.905135920449364
  endloop
endfacet
facet normal -0.8617949231266501 -1.6124804573273038e-10 -0.5072568486212203
  outer loop
    vertex 2.775639782517369 177.43201398101732 13.480474559398008
    vertex 4.291497124845981 179.43201397686678 10.905135920449364
    vertex 4.291497125085439 177.43201397686678 10.905135920678308
  endloop
endfacet
facet normal -0.8617949231266501 -1.6124804573273038e-10 -0.5072568486212203
  outer loop
    vertex 4.291497124845981 179.43201397686678 10.905135920449364
    vertex 2.775639782517369 177.43201398101732 13.480474559398008
    vertex 2.7756397822779117 179.43201398101732 13.480474559169062
  endloop
endfacet
facet normal -0.9156088217188505 -1.5565020748100997e-10 -0.40207024957166204
  outer loop
    vertex 1.5741160540590768 177.4320139878705 16.216627573586287
    vertex 2.7756397822779117 179.43201398101732 13.480474559169062
    vertex 2.775639782517369 177.43201398101732 13.480474559398008
  endloop
endfacet
facet normal -0.9156088217188505 -1.5565020748100997e-10 -0.40207024957166204
  outer loop
    vertex 2.7756397822779117 179.43201398101732 13.480474559169062
    vertex 1.5741160540590768 177.4320139878705 16.216627573586287
    vertex 1.57411605381962 179.4320139878705 16.216627573357343
  endloop
endfacet
facet normal -0.9982534552530602 -1.262820279605992e-10 -0.05907655266962069
  outer loop
    vertex -2.0624798130915787e-08 177.43201402350894 24.99999998574168
    vertex 0.17654096893462962 179.43201400926563 22.01687647717104
    vertex 0.1765409691740867 177.43201400926566 22.016876477399983
  endloop
endfacet
facet normal -0.9982534552530602 -1.262820279605992e-10 -0.05907655266962069
  outer loop
    vertex 0.17654096893462962 179.43201400926563 22.01687647717104
    vertex -2.0624798130915787e-08 177.43201402350894 24.99999998574168
    vertex -2.0864255212416083e-08 179.43201402350894 24.999999985512737
  endloop
endfacet
facet normal -0.3235377547983601 -1.4705165370366904e-10 -0.9462152615658005
  outer loop
    vertex 18.53726544589477 179.4320140092658 0.6265850174546905
    vertex 15.709649898324214 177.43201399733076 1.5934267321762816
    vertex 15.709649898084756 179.43201399733076 1.5934267319473379
  endloop
endfacet
facet normal -0.3235377547983601 -1.4705165370366904e-10 -0.9462152615658005
  outer loop
    vertex 15.709649898324214 177.43201399733076 1.5934267321762816
    vertex 18.53726544589477 179.4320140092658 0.6265850174546905
    vertex 18.537265446134228 177.4320140092658 0.6265850176836341
  endloop
endfacet
facet normal -0.7189939526325296 -1.656438567549302e-10 -0.695016327921763
  outer loop
    vertex 6.100526476091109 179.43201397547682 8.526563787123658
    vertex 8.17747350375573 177.4320139768668 6.377963398175986
    vertex 6.1005264763305656 177.43201397547682 8.5265637873526
  endloop
endfacet
facet normal -0.7189939526325296 -1.656438567549302e-10 -0.695016327921763
  outer loop
    vertex 8.17747350375573 177.4320139768668 6.377963398175986
    vertex 6.100526476091109 179.43201397547682 8.526563787123658
    vertex 8.177473503516273 179.4320139768668 6.377963397947043
  endloop
endfacet
facet normal -0.9566406780490053 -1.4787946800452363e-10 -0.29127068699397063
  outer loop
    vertex 0.7036993987595672 177.4320139973306 19.075397839500848
    vertex 1.57411605381962 179.4320139878705 16.216627573357343
    vertex 1.5741160540590768 177.4320139878705 16.216627573586287
  endloop
endfacet
facet normal -0.9566406780490053 -1.4787946800452363e-10 -0.29127068699397063
  outer loop
    vertex 1.57411605381962 179.4320139878705 16.216627573357343
    vertex 0.7036993987595672 177.4320139973306 19.075397839500848
    vertex 0.7036993985201101 179.4320139973306 19.075397839271904
  endloop
endfacet
facet normal -0.6320004045987047 -1.6438046331646823e-10 -0.7749680564946363
  outer loop
    vertex 10.49334370198904 179.4320139810174 4.489329550181471
    vertex 8.17747350375573 177.4320139768668 6.377963398175986
    vertex 8.177473503516273 179.4320139768668 6.377963397947043
  endloop
endfacet
facet normal -0.6320004045987047 -1.6438046331646823e-10 -0.7749680564946363
  outer loop
    vertex 8.17747350375573 177.4320139768668 6.377963398175986
    vertex 10.49334370198904 179.4320139810174 4.489329550181471
    vertex 10.493343702228499 177.4320139810174 4.489329550410415
  endloop
endfacet
facet normal -0.9843176809894084 -1.3804430804094006e-10 -0.17640494009985447
  outer loop
    vertex 0.1765409691740867 177.43201400926566 22.016876477399983
    vertex 0.7036993985201101 179.4320139973306 19.075397839271904
    vertex 0.7036993987595672 177.4320139973306 19.075397839500848
  endloop
endfacet
facet normal -0.9843176809894084 -1.3804430804094006e-10 -0.17640494009985447
  outer loop
    vertex 0.7036993985201101 179.4320139973306 19.075397839271904
    vertex 0.1765409691740867 177.43201400926566 22.016876477399983
    vertex 0.17654096893462962 179.43201400926563 22.01687647717104
  endloop
endfacet
facet normal -1.0 -1.1972854065461217e-10 8.345701123844318e-10
  outer loop
    vertex -2.387899959130848e-15 179.432014 50.00000000000001
    vertex -2.0624798130915787e-08 177.43201402350894 24.99999998574168
    vertex 2.394546936003347e-10 177.432014 50.000000000228944
  endloop
endfacet
facet normal -1.0 -1.1972854065461217e-10 8.345701123844318e-10
  outer loop
    vertex -2.0624798130915787e-08 177.43201402350894 24.99999998574168
    vertex -2.387899959130848e-15 179.432014 50.00000000000001
    vertex -2.0864255212416083e-08 179.43201402350894 24.999999985512737
  endloop
endfacet
facet normal -0.43288244677480464 -1.5501901817212697e-10 -0.9014503798181343
  outer loop
    vertex 15.709649898084756 179.43201399733076 1.5934267319473379
    vertex 13.015807161804643 177.4320139878706 2.887027867766672
    vertex 13.015807161565185 179.4320139878706 2.8870278675377286
  endloop
endfacet
facet normal -0.43288244677480464 -1.5501901817212697e-10 -0.9014503798181343
  outer loop
    vertex 13.015807161804643 177.4320139878706 2.887027867766672
    vertex 15.709649898084756 179.43201399733076 1.5934267319473379
    vertex 15.709649898324214 177.43201399733076 1.5934267321762816
  endloop
endfacet
facet normal -0.20967642519555754 -1.3703142516514243e-10 -0.9777708303673269
  outer loop
    vertex 21.459179849987795 179.4320140235091 -1.4487274348989179e-08
    vertex 18.537265446134228 177.4320140092658 0.6265850176836341
    vertex 18.53726544589477 179.4320140092658 0.6265850174546905
  endloop
endfacet
facet normal -0.20967642519555754 -1.3703142516514243e-10 -0.9777708303673269
  outer loop
    vertex 18.537265446134228 177.4320140092658 0.6265850176836341
    vertex 21.459179849987795 179.4320140235091 -1.4487274348989179e-08
    vertex 21.45917985022725 177.4320140235091 -1.4258330778020258e-08
  endloop
endfacet
facet normal 1.2307515466699105e-10 -1.0 1.18977532607416e-10
  outer loop
    vertex 60.00000000023946 177.432014 2.2894357096892002e-10
    vertex 18.537265446134228 177.4320140092658 0.6265850176836341
    vertex 21.45917985022725 177.4320140235091 -1.4258330778020258e-08
  endloop
endfacet
facet normal 1.2307515466699105e-10 -1.0 1.18977532607416e-10
  outer loop
    vertex 18.537265446134228 177.4320140092658 0.6265850176836341
    vertex 60.00000000023946 177.432014 2.2894357096892002e-10
    vertex 60.00000000023946 177.432014 50.000000000228944
  endloop
endfacet
facet normal 1.2307515466699105e-10 -1.0 1.18977532607416e-10
  outer loop
    vertex 18.537265446134228 177.4320140092658 0.6265850176836341
    vertex 60.00000000023946 177.432014 50.000000000228944
    vertex 15.709649898324214 177.43201399733076 1.5934267321762816
  endloop
endfacet
facet normal 1.2307515466699105e-10 -1.0 1.18977532607416e-10
  outer loop
    vertex 15.709649898324214 177.43201399733076 1.5934267321762816
    vertex 60.00000000023946 177.432014 50.000000000228944
    vertex 13.015807161804643 177.4320139878706 2.887027867766672
  endloop
endfacet
facet normal 1.2307515466699105e-10 -1.0 1.18977532607416e-10
  outer loop
    vertex 13.015807161804643 177.4320139878706 2.887027867766672
    vertex 60.00000000023946 177.432014 50.000000000228944
    vertex 10.493343702228499 177.4320139810174 4.489329550410415
  endloop
endfacet
facet normal 1.2307515466699105e-10 -1.0 1.18977532607416e-10
  outer loop
    vertex 10.493343702228499 177.4320139810174 4.489329550410415
    vertex 60.00000000023946 177.432014 50.000000000228944
    vertex 8.17747350375573 177.4320139768668 6.377963398175986
  endloop
endfacet
facet normal 1.2307515466699105e-10 -1.0 1.18977532607416e-10
  outer loop
    vertex 8.17747350375573 177.4320139768668 6.377963398175986
    vertex 60.00000000023946 177.432014 50.000000000228944
    vertex 6.1005264763305656 177.43201397547682 8.5265637873526
  endloop
endfacet
facet normal 1.2307515466699105e-10 -1.0 1.18977532607416e-10
  outer loop
    vertex 6.1005264763305656 177.43201397547682 8.5265637873526
    vertex 60.00000000023946 177.432014 50.000000000228944
    vertex 4.291497125085439 177.43201397686678 10.905135920678308
  endloop
endfacet
facet normal 1.2307515466699105e-10 -1.0 1.18977532607416e-10
  outer loop
    vertex 4.291497125085439 177.43201397686678 10.905135920678308
    vertex 60.00000000023946 177.432014 50.000000000228944
    vertex 2.775639782517369 177.43201398101732 13.480474559398008
  endloop
endfacet
facet normal 1.2307515466699105e-10 -1.0 1.18977532607416e-10
  outer loop
    vertex 2.775639782517369 177.43201398101732 13.480474559398008
    vertex 60.00000000023946 177.432014 50.000000000228944
    vertex 1.5741160540590768 177.4320139878705 16.216627573586287
  endloop
endfacet
facet normal 1.2307515466699105e-10 -1.0 1.18977532607416e-10
  outer loop
    vertex 1.5741160540590768 177.4320139878705 16.216627573586287
    vertex 60.00000000023946 177.432014 50.000000000228944
    vertex 0.7036993987595672 177.4320139973306 19.075397839500848
  endloop
endfacet
facet normal 1.2307515466699105e-10 -1.0 1.18977532607416e-10
  outer loop
    vertex 0.7036993987595672 177.4320139973306 19.075397839500848
    vertex 60.00000000023946 177.432014 50.000000000228944
    vertex 0.1765409691740867 177.43201400926566 22.016876477399983
  endloop
endfacet
facet normal 1.2307515466699105e-10 -1.0 1.18977532607416e-10
  outer loop
    vertex 0.1765409691740867 177.43201400926566 22.016876477399983
    vertex 60.00000000023946 177.432014 50.000000000228944
    vertex -2.0624798130915787e-08 177.43201402350894 24.99999998574168
  endloop
endfacet
facet normal 1.2307515466699105e-10 -1.0 1.18977532607416e-10
  outer loop
    vertex -2.0624798130915787e-08 177.43201402350894 24.99999998574168
    vertex 60.00000000023946 177.432014 50.000000000228944
    vertex 2.394546936003347e-10 177.432014 50.000000000228944
  endloop
endfacet
endsolid EncoderHolderBody
