solid FilamentTubeHolderWithTab
facet normal 0.0 0.0 -1.0
  outer loop
    vertex 0.0 22.5 0.0
    vertex 1.9999999999999998 20.0 0.0
    vertex 0.0 2.4999999999999996 0.0
  endloop
endfacet
facet normal 0.0 0.0 -1.0
  outer loop
    vertex 1.9999999999999998 20.0 0.0
    vertex 0.0 22.5 0.0
    vertex 20.0 22.5 0.0
  endloop
endfacet
facet normal 0.0 0.0 -1.0
  outer loop
    vertex 1.9999999999999998 20.0 0.0
    vertex 20.0 22.5 0.0
    vertex 17.0 20.0 0.0
  endloop
endfacet
facet normal 0.0 0.0 -1.0
  outer loop
    vertex 17.0 20.0 0.0
    vertex 20.0 22.5 0.0
    vertex 17.0 2.500000000000001 0.0
  endloop
endfacet
facet normal 0.0 0.0 -1.0
  outer loop
    vertex 17.0 2.500000000000001 0.0
    vertex 20.0 22.5 0.0
    vertex 20.0 2.500000000000001 0.0
  endloop
endfacet
facet normal 0.0 0.0 -1.0
  outer loop
    vertex 2.0 2.4999999999999996 0.0
    vertex 0.0 2.4999999999999996 0.0
    vertex 1.9999999999999998 20.0 0.0
  endloop
endfacet
facet normal -0.0 -0.0 1.0
  outer loop
    vertex 2.0 2.4999999999999996 15.0
    vertex 0.0 22.5 15.0
    vertex 0.0 2.4999999999999996 15.0
  endloop
endfacet
facet normal -0.0 -0.0 1.0
  outer loop
    vertex 0.0 22.5 15.0
    vertex 2.0 2.4999999999999996 15.0
    vertex 1.9999999999999998 20.0 15.0
  endloop
endfacet
facet normal -0.0 -0.0 1.0
  outer loop
    vertex 20.0 2.500000000000001 15.0
    vertex 17.0 20.0 15.0
    vertex 17.0 2.500000000000001 15.0
  endloop
endfacet
facet normal -0.0 -0.0 1.0
  outer loop
    vertex 1.9999999999999998 20.0 15.0
    vertex 20.0 22.5 15.0
    vertex 0.0 22.5 15.0
  endloop
endfacet
facet normal -0.0 -0.0 1.0
  outer loop
    vertex 20.0 22.5 15.0
    vertex 1.9999999999999998 20.0 15.0
    vertex 17.0 20.0 15.0
  endloop
endfacet
facet normal -0.0 -0.0 1.0
  outer loop
    vertex 20.0 22.5 15.0
    vertex 17.0 20.0 15.0
    vertex 20.0 2.500000000000001 15.0
  endloop
endfacet
facet normal 1.0 2.014261773248498e-17 0.0
  outer loop
    vertex 1.9999999999999998 20.0 0.0
    vertex 2.0 2.4999999999999996 15.0
    vertex 2.0 2.4999999999999996 0.0
  endloop
endfacet
facet normal 1.0 2.014261773248498e-17 0.0
  outer loop
    vertex 2.0 2.4999999999999996 15.0
    vertex 1.9999999999999998 20.0 0.0
    vertex 1.9999999999999998 20.0 15.0
  endloop
endfacet
facet normal -0.0 -1.0 -0.0
  outer loop
    vertex 2.0 2.4999999999999996 15.0
    vertex 0.0 2.4999999999999996 0.0
    vertex 2.0 2.4999999999999996 0.0
  endloop
endfacet
facet normal -0.0 -1.0 -0.0
  outer loop
    vertex 0.0 2.4999999999999996 0.0
    vertex 2.0 2.4999999999999996 15.0
    vertex 0.0 2.4999999999999996 15.0
  endloop
endfacet
facet normal 1.0 0.0 0.0
  outer loop
    vertex 20.0 22.5 0.0
    vertex 20.0 2.500000000000001 15.0
    vertex 20.0 2.500000000000001 0.0
  endloop
endfacet
facet normal 1.0 0.0 0.0
  outer loop
    vertex 20.0 2.500000000000001 15.0
    vertex 20.0 22.5 0.0
    vertex 20.0 22.5 15.0
  endloop
endfacet
facet normal -0.0 1.0 0.0
  outer loop
    vertex 0.0 22.5 15.0
    vertex 20.0 22.5 0.0
    vertex 0.0 22.5 0.0
  endloop
endfacet
facet normal -0.0 1.0 0.0
  outer loop
    vertex 20.0 22.5 0.0
    vertex 0.0 22.5 15.0
    vertex 20.0 22.5 15.0
  endloop
endfacet
facet normal -0.0 -1.0 -0.0
  outer loop
    vertex 17.0 20.0 15.0
    vertex 1.9999999999999998 20.0 0.0
    vertex 17.0 20.0 0.0
  endloop
endfacet
facet normal -0.0 -1.0 -0.0
  outer loop
    vertex 1.9999999999999998 20.0 0.0
    vertex 17.0 20.0 15.0
    vertex 1.9999999999999998 20.0 15.0
  endloop
endfacet
facet normal -1.0 0.0 0.0
  outer loop
    vertex 0.0 22.5 15.0
    vertex 0.0 2.4999999999999996 0.0
    vertex 0.0 2.4999999999999996 15.0
  endloop
endfacet
facet normal -1.0 0.0 0.0
  outer loop
    vertex 0.0 2.4999999999999996 0.0
    vertex 0.0 22.5 15.0
    vertex 0.0 22.5 0.0
  endloop
endfacet
facet normal -0.0 -1.0 -0.0
  outer loop
    vertex 20.0 2.500000000000001 15.0
    vertex 17.0 2.500000000000001 0.0
    vertex 20.0 2.500000000000001 0.0
  endloop
endfacet
facet normal -0.0 -1.0 -0.0
  outer loop
    vertex 17.0 2.500000000000001 0.0
    vertex 20.0 2.500000000000001 15.0
    vertex 17.0 2.500000000000001 15.0
  endloop
endfacet
facet normal -1.0 0.0 0.0
  outer loop
    vertex 17.0 20.0 15.0
    vertex 17.0 2.500000000000001 0.0
    vertex 17.0 2.500000000000001 15.0
  endloop
endfacet
facet normal -1.0 0.0 0.0
  outer loop
    vertex 17.0 2.500000000000001 0.0
    vertex 17.0 20.0 15.0
    vertex 17.0 20.0 0.0
  endloop
endfacet
endsolid FilamentTubeHolderWithTab
