solid Untitled-5d1e2264
facet normal -0.0 -1.0 -0.0
  outer loop
    vertex 155.0 155.0 0.9999999999999999
    vertex 5.0 155.0 0.0
    vertex 155.0 155.0 0.0
  endloop
endfacet
facet normal -0.0 -1.0 -0.0
  outer loop
    vertex 5.0 155.0 0.0
    vertex 155.0 155.0 0.9999999999999999
    vertex 5.0 155.0 0.9999999999999999
  endloop
endfacet
facet normal -1.0 0.0 0.0
  outer loop
    vertex 155.0 155.0 0.9999999999999999
    vertex 155.0 5.0 0.0
    vertex 155.0 5.0 0.9999999999999999
  endloop
endfacet
facet normal -1.0 0.0 0.0
  outer loop
    vertex 155.0 5.0 0.0
    vertex 155.0 155.0 0.9999999999999999
    vertex 155.0 155.0 0.0
  endloop
endfacet
facet normal -0.0 -0.0 1.0
  outer loop
    vertex 0.0 0.0 0.9999999999999999
    vertex 5.0 5.0 0.9999999999999999
    vertex 0.0 160.0 0.9999999999999999
  endloop
endfacet
facet normal -0.0 -0.0 1.0
  outer loop
    vertex 5.0 5.0 0.9999999999999999
    vertex 0.0 0.0 0.9999999999999999
    vertex 160.0 0.0 0.9999999999999999
  endloop
endfacet
facet normal -0.0 -0.0 1.0
  outer loop
    vertex 5.0 5.0 0.9999999999999999
    vertex 160.0 0.0 0.9999999999999999
    vertex 155.0 5.0 0.9999999999999999
  endloop
endfacet
facet normal -0.0 -0.0 1.0
  outer loop
    vertex 155.0 5.0 0.9999999999999999
    vertex 160.0 0.0 0.9999999999999999
    vertex 155.0 155.0 0.9999999999999999
  endloop
endfacet
facet normal -0.0 -0.0 1.0
  outer loop
    vertex 0.0 160.0 0.9999999999999999
    vertex 5.0 155.0 0.9999999999999999
    vertex 160.0 160.0 0.9999999999999999
  endloop
endfacet
facet normal -0.0 -0.0 1.0
  outer loop
    vertex 5.0 155.0 0.9999999999999999
    vertex 0.0 160.0 0.9999999999999999
    vertex 5.0 5.0 0.9999999999999999
  endloop
endfacet
facet normal -0.0 -0.0 1.0
  outer loop
    vertex 160.0 160.0 0.9999999999999999
    vertex 5.0 155.0 0.9999999999999999
    vertex 155.0 155.0 0.9999999999999999
  endloop
endfacet
facet normal -0.0 -0.0 1.0
  outer loop
    vertex 160.0 160.0 0.9999999999999999
    vertex 155.0 155.0 0.9999999999999999
    vertex 160.0 0.0 0.9999999999999999
  endloop
endfacet
facet normal 0.0 0.0 -1.0
  outer loop
    vertex 0.0 160.0 0.0
    vertex 5.0 155.0 0.0
    vertex 0.0 0.0 0.0
  endloop
endfacet
facet normal 0.0 0.0 -1.0
  outer loop
    vertex 5.0 155.0 0.0
    vertex 0.0 160.0 0.0
    vertex 160.0 160.0 0.0
  endloop
endfacet
facet normal 0.0 0.0 -1.0
  outer loop
    vertex 5.0 155.0 0.0
    vertex 160.0 160.0 0.0
    vertex 155.0 155.0 0.0
  endloop
endfacet
facet normal 0.0 0.0 -1.0
  outer loop
    vertex 155.0 155.0 0.0
    vertex 160.0 160.0 0.0
    vertex 155.0 5.0 0.0
  endloop
endfacet
facet normal 0.0 0.0 -1.0
  outer loop
    vertex 0.0 0.0 0.0
    vertex 5.0 5.0 0.0
    vertex 160.0 0.0 0.0
  endloop
endfacet
facet normal 0.0 0.0 -1.0
  outer loop
    vertex 5.0 5.0 0.0
    vertex 0.0 0.0 0.0
    vertex 5.0 155.0 0.0
  endloop
endfacet
facet normal 0.0 0.0 -1.0
  outer loop
    vertex 160.0 0.0 0.0
    vertex 5.0 5.0 0.0
    vertex 155.0 5.0 0.0
  endloop
endfacet
facet normal 0.0 0.0 -1.0
  outer loop
    vertex 160.0 0.0 0.0
    vertex 155.0 5.0 0.0
    vertex 160.0 160.0 0.0
  endloop
endfacet
facet normal 1.0 0.0 0.0
  outer loop
    vertex 160.0 160.0 0.0
    vertex 160.0 0.0 0.9999999999999999
    vertex 160.0 0.0 0.0
  endloop
endfacet
facet normal 1.0 0.0 0.0
  outer loop
    vertex 160.0 0.0 0.9999999999999999
    vertex 160.0 160.0 0.0
    vertex 160.0 160.0 0.9999999999999999
  endloop
endfacet
facet normal -0.0 1.0 0.0
  outer loop
    vertex 5.0 5.0 0.9999999999999999
    vertex 155.0 5.0 0.0
    vertex 5.0 5.0 0.0
  endloop
endfacet
facet normal -0.0 1.0 0.0
  outer loop
    vertex 155.0 5.0 0.0
    vertex 5.0 5.0 0.9999999999999999
    vertex 155.0 5.0 0.9999999999999999
  endloop
endfacet
facet normal -0.0 -1.0 -0.0
  outer loop
    vertex 160.0 0.0 0.9999999999999999
    vertex 0.0 0.0 0.0
    vertex 160.0 0.0 0.0
  endloop
endfacet
facet normal -0.0 -1.0 -0.0
  outer loop
    vertex 0.0 0.0 0.0
    vertex 160.0 0.0 0.9999999999999999
    vertex 0.0 0.0 0.9999999999999999
  endloop
endfacet
facet normal 1.0 0.0 0.0
  outer loop
    vertex 5.0 155.0 0.0
    vertex 5.0 5.0 0.9999999999999999
    vertex 5.0 5.0 0.0
  endloop
endfacet
facet normal 1.0 0.0 0.0
  outer loop
    vertex 5.0 5.0 0.9999999999999999
    vertex 5.0 155.0 0.0
    vertex 5.0 155.0 0.9999999999999999
  endloop
endfacet
facet normal -0.0 1.0 0.0
  outer loop
    vertex 0.0 160.0 0.9999999999999999
    vertex 160.0 160.0 0.0
    vertex 0.0 160.0 0.0
  endloop
endfacet
facet normal -0.0 1.0 0.0
  outer loop
    vertex 160.0 160.0 0.0
    vertex 0.0 160.0 0.9999999999999999
    vertex 160.0 160.0 0.9999999999999999
  endloop
endfacet
facet normal -1.0 0.0 0.0
  outer loop
    vertex 0.0 160.0 0.9999999999999999
    vertex 0.0 0.0 0.0
    vertex 0.0 0.0 0.9999999999999999
  endloop
endfacet
facet normal -1.0 0.0 0.0
  outer loop
    vertex 0.0 0.0 0.0
    vertex 0.0 160.0 0.9999999999999999
    vertex 0.0 160.0 0.0
  endloop
endfacet
endsolid Untitled-5d1e2264
